# xmcd
#
# Track frame offsets:
#	150
#	12825
#	26600
#	40975
#	52975
#	67200
#	79750
#	92138
#	106988
#
# Disc length: 1614 seconds
#
# Revision: 0
# Processed by: cddbd v1.4PL0 Copyright (c) Steve Scherf et al.
# Submitted via: dBpowerAMP V4.0
#
DISCID=6e064c09
DTITLE=Dusty Lane - Holiday For Broken Hearts
DYEAR=1900
DGENRE=
TTITLE0=Randy Boone~Holiday For Broken Hearts
TTITLE1=Randy Boone~Pretty Woman
TTITLE2=Art Wallman~Caution To The Wind
TTITLE3=Harold Brooks~She's The One
TTITLE4=Scotty Wiseman~Each Time You Leave
TTITLE5=Rick Hanson~Laced With Love
TTITLE6=Pee Wee King~I Can Forgive But I Can't Forget
TTITLE7=Scotty Wiseman~Tell Her You Love Her
TTITLE8=Scotty Wiseman~I'd Rather Be Wrong Than Lonely
EXTD=
EXTT0=
EXTT1=
EXTT2=
EXTT3=
EXTT4=
EXTT5=
EXTT6=
EXTT7=
EXTT8=
PLAYORDER=
